<svg xmlns="http://www.w3.org/2000/svg" width="135" height="51" viewBox="0 0 135 51">
    <g fill="none" fill-rule="evenodd">
        <path class="logo-part-1" d="M89.174 21.286h4.58v-4.524h-4.58v4.524zm0 21.286h4.58V23.06h-4.58v19.512zm36.02-4.083c-3.405 0-4.095-1.243-4.095-5.806 0-4.564.69-5.965 4.094-5.965 3.933 0 4.988 1.08 4.988 5.964 0 4.883-1.055 5.805-4.988 5.805zm5.392-15.43v1.538c-1.54-1.36-4.053-1.882-6.162-1.882-6.81 0-7.905 4.044-7.905 9.968 0 4.684.445 9.888 7.945 9.888 1.905 0 4.256-.44 5.676-1.723 0 1 .042 2.41-.08 3.41-.244 1.84-2.15 2.642-4.784 2.642-2.555 0-3.362-.712-3.362-2.113h-4.99c0 4.964 4.5 5.955 8.472 5.955 3.65 0 8.435-.96 9.164-5.604.162-1.08.162-2.848.162-4.65V23.06h-4.136zm-24.17-.344c-2.796 0-4.58.88-5.715 1.882v-1.54H96.73v19.514h4.58v-9.088c0-3.402-.363-6.765 4.582-6.765 3.975 0 3.61 1.8 3.61 5.564v10.288h4.58v-10.65c0-4.24.326-9.206-7.663-9.206zm-25.844 0c-2.312 0-4.136.72-5.434 2.083v-1.74h-3.972V42.57h4.58v-8.487c0-1.52-.08-3.682.448-5.084.485-1.32 1.662-2.32 3.567-2.32 1.907 0 2.663.4 2.663 2.202h4.554c0-4.284-2.148-6.166-6.405-6.166zM60.076 38.81c-3.934 0-5.07-1.082-5.07-5.965 0-4.886 1.136-5.965 5.07-5.965 3.405 0 4.134 1.4 4.134 5.965 0 4.563-.73 5.964-4.134 5.964zm1.012-16.094c-2.148 0-4.5.24-6 1.763v-7.73h-4.58V42.57h4.133V41.01c1.218 1.08 3.084 1.88 5.72 1.88 7.904 0 8.43-5.282 8.43-10.045 0-5.925-.93-10.13-7.702-10.13z" fill="#7bc144"></path>
        <path class="logo-part-2" d="M13.003 33.26c-5.9 0-10.732-4.493-11.19-10.2H0c.472 11.834 10.333 21.286 22.435 21.286 7.95 0 14.933-4.08 18.922-10.234 2.084-3.213 3.35-6.993 3.513-11.052H24.192c-.458 5.707-5.29 10.2-11.19 10.2z" fill="#C1C1C1"></path>
        <path class="logo-part-3" d="M1.813 21.285c.458-5.707 5.29-10.2 11.19-10.2 5.898 0 10.73 4.493 11.19 10.2H44.87C44.397 9.45 34.536 0 22.435 0 10.333 0 .473 9.45 0 21.285h1.813" fill="#7bc144"></path>
    </g>
</svg>